<mxfile host="app.diagrams.net" modified="2023-02-27T07:30:53.147Z" agent="5.0 (Windows NT 10.0; Win64; x64) AppleWebKit/537.36 (KHTML, like Gecko) Chrome/110.0.0.0 Safari/537.36" etag="NendiLXboX-WWtMDtgqI" version="20.8.23" type="github">
  <diagram name="Page-1" id="jt4ZISShodlBxiSZYyno">
    <mxGraphModel dx="732" dy="510" grid="1" gridSize="10" guides="1" tooltips="1" connect="1" arrows="1" fold="1" page="1" pageScale="1" pageWidth="850" pageHeight="1100" math="0" shadow="0">
      <root>
        <mxCell id="0" />
        <mxCell id="1" parent="0" />
        <mxCell id="KYuz1vz09E3Rf9H6T9P5-4" value="" style="edgeStyle=orthogonalEdgeStyle;rounded=0;orthogonalLoop=1;jettySize=auto;html=1;entryX=0.5;entryY=0;entryDx=0;entryDy=0;" edge="1" parent="1" source="KYuz1vz09E3Rf9H6T9P5-1" target="KYuz1vz09E3Rf9H6T9P5-2">
          <mxGeometry relative="1" as="geometry" />
        </mxCell>
        <mxCell id="KYuz1vz09E3Rf9H6T9P5-1" value="EDA" style="rounded=0;whiteSpace=wrap;html=1;" vertex="1" parent="1">
          <mxGeometry x="400" y="10" width="90" height="40" as="geometry" />
        </mxCell>
        <mxCell id="KYuz1vz09E3Rf9H6T9P5-2" value="Univariet" style="rounded=0;whiteSpace=wrap;html=1;" vertex="1" parent="1">
          <mxGeometry x="250" y="70" width="90" height="40" as="geometry" />
        </mxCell>
        <mxCell id="KYuz1vz09E3Rf9H6T9P5-5" value="Bivariet" style="rounded=0;whiteSpace=wrap;html=1;" vertex="1" parent="1">
          <mxGeometry x="560" y="70" width="90" height="40" as="geometry" />
        </mxCell>
        <mxCell id="KYuz1vz09E3Rf9H6T9P5-7" value="" style="edgeStyle=orthogonalEdgeStyle;rounded=0;orthogonalLoop=1;jettySize=auto;html=1;entryX=0.5;entryY=0;entryDx=0;entryDy=0;exitX=1;exitY=0.5;exitDx=0;exitDy=0;" edge="1" parent="1" source="KYuz1vz09E3Rf9H6T9P5-1" target="KYuz1vz09E3Rf9H6T9P5-5">
          <mxGeometry relative="1" as="geometry">
            <mxPoint x="410" y="40" as="sourcePoint" />
            <mxPoint x="305" y="80" as="targetPoint" />
          </mxGeometry>
        </mxCell>
      </root>
    </mxGraphModel>
  </diagram>
</mxfile>
